<svg xmlns="http://www.w3.org/2000/svg" width="800" height="600" viewBox="0 0 800 600">
  <style>
    .class {
      fill: #ffffff;
      stroke: #000000;
    }
    .class-header {
      fill: #f0f0f0;
      stroke: #000000;
    }
    .attribute {
      font-size: 12px;
    }
    .association {
      stroke: #000000;
      fill: none;
      marker-end: url(#arrow);
    }
    .association-arrow {
      fill: #000000;
      stroke: none;
    }
  </style>
  <rect class="class-header" x="10" y="10" width="140" height="60"/>
  <text x="80" y="40" text-anchor="middle" alignment-baseline="central">User</text>
  <rect class="class" x="10" y="70" width="140" height="140"/>
  <text class="attribute" x="80" y="100" text-anchor="middle">id: Integer</text>
  <text class="attribute" x="80" y="120" text-anchor="middle">email: String</text>
  <text class="attribute" x="80" y="140" text-anchor="middle">gender: String</text>
  <text class="attribute" x="80" y="160" text-anchor="middle">address: String</text>
  <text class="attribute" x="80" y="180" text-anchor="middle">points: Integer</text>
  <text class="attribute" x="80" y="200" text-anchor="middle">latitude: Float</text>
  <text class="attribute" x="80" y="220" text-anchor="middle">longitude: Float</text>
  <text class="attribute" x="80" y="240" text-anchor="middle">company: Company</text>
  <rect class="class-header" x="180" y="10" width="140" height="60"/>
  <text x="250" y="40" text-anchor="middle" alignment-baseline="central">Company</text>
  <rect class="class" x="180" y="70" width="140" height="100"/>
  <text class="attribute" x="250" y="100" text-anchor="middle">id: Integer</text>
  <text class="attribute" x="250" y="120" text-anchor="middle">name: String</text>
  <text class="attribute" x="250" y="140" text-anchor="middle">address: String</text>
  <text class="attribute" x="250" y="160" text-anchor="middle">hub: Hub</text>
  <rect class="class-header" x="350" y="10" width="140" height="60"/>
  <text x="420" y="40" text-anchor="middle" alignment-baseline="central">Hub</text>
  <rect class="class" x="350" y="70" width="140" height="60"/>
  <text class="attribute" x="420" y="100" text-anchor="middle">id: UUID</text>
  <text class="attribute" x="420" y="120" text-anchor="middle">latitude: Float</text>
  <text class="attribute" x="420" y="140" text-anchor="middle">longitude: Float</text>
  <rect class="class-header" x="530" y="10" width="140" height="60"/>
  <text x="600" y="40" text-anchor="middle" alignment-baseline="central">Ride</text>
  <rect class="class" x="530" y="70" width="140" height="120"/>
  <text class="attribute" x="600" y="100" text-anchor="middle">id: UUID</text>
  <text class="attribute" x="600" y="120" text-anchor="middle">driver: User</text>
  <text class="attribute" x="600" y="140" text-anchor="middle">source_hub: Hub</text>
  <text class="attribute" x="600" y="160" text-anchor="middle">destination_hub: Hub</text>
  <text class="attribute" x="600" y="180" text-anchor="middle">passengers: User</text>
  <rect class="class-header" x="640" y="10" width="140" height="60"/>
  <text x="710" y="40" text-anchor="middle" alignment-baseline="central">Ride2Passengers</text>
  <rect class="class" x="640" y="70" width="140" height="80"/>
  <text class="attribute" x="710" y="100" text-anchor="middle">ride: Ride</text>
  <text class="attribute" x="710" y="120" text-anchor="middle">passenger: User</text>
  <text class="attribute" x="710" y="140" text-anchor="middle">source_hub: Hub</text>
  <line class="association" x1="180" y1="130" x2="350" y2="130"/>
  <line class="association" x1="180" y1="160" x2="350" y2="160"/>
  <line class="association" x1="350" y1="190" x2="530" y2="190"/>
  <line class="association" x1="350" y1="230" x2="530" y2="230"/>
  <line class="association" x1="530" y1="160" x2="640" y2="160"/>
  <line class="association" x1="530" y1="190" x2="640" y2="190"/>
  <line class="association" x1="640" y1="160" x2="640" y2="190"/>
  <line class="association" x1="640" y1="190" x2="640" y2="220"/>
  <line class="association" x1="530" y1="220" x2="640" y2="220"/>
  <line class="association" x1="420" y1="190" x2="420" y2="220"/>
  <line class="association" x1="420" y1="220" x2="350" y2="220"/>
  <line class="association" x1="350" y1="250" x2="350" y2="260"/>
  <line class="association" x1="350" y1="280" x2="350" y2="290"/>
  <line class="association" x1="350" y1="310" x2="530" y2="310"/>
  <line class="association" x1="530" y1="310" x2="640" y2="310"/>
  <line class="association" x1="350" y1="430" x2="640" y2="430"/>
  <line class="association" x1="640" y1="430" x2="640" y2="460"/>
  <line class="association" x1="420" y1="400" x2="640" y2="400"/>
  <line class="association" x1="640" y1="400" x2="640" y2="430"/>
  <line class="association" x1="420" y1="430" x2="350" y2="430"/>
  <line class="association" x1="350" y1="430" x2="350" y2="460"/>
  <line class="association" x1="350" y1="460" x2="640" y2="460"/>
  <line class="association" x1="640" y1="460" x2="640" y2="490"/>
  <line class="association" x1="640" y1="490" x2="530" y2="490"/>
  <line class="association" x1="530" y1="520" x2="640" y2="520"/>
  <line class="association" x1="640" y1="520" x2="640" y2="550"/>
  <line class="association" x1="640" y1="550" x2="530" y2="550"/>
  <line class="association" x1="530" y1="580" x2="640" y2="580"/>
  <line class="association" x1="640" y1="580" x2="640" y2="610"/>
</svg>
